<svg width="1200" height="630" viewBox="0 0 1200 630" fill="none" xmlns="http://www.w3.org/2000/svg">
  <defs>
    <linearGradient id="bg" x1="0" y1="0" x2="1" y2="1">
      <stop offset="0" stop-color="#0a0e16"/>
      <stop offset="1" stop-color="#070a11"/>
    </linearGradient>
    <linearGradient id="blue" x1="0" y1="0" x2="1" y2="1">
      <stop offset="0" stop-color="#6b93ff"/>
      <stop offset="1" stop-color="#4d7cfe"/>
    </linearGradient>
    <radialGradient id="halo" cx="0.82" cy="0.28" r="0.55">
      <stop offset="0" stop-color="#4d7cfe" stop-opacity="0.28"/>
      <stop offset="1" stop-color="#4d7cfe" stop-opacity="0"/>
    </radialGradient>
    <filter id="soft" x="-20%" y="-20%" width="140%" height="140%">
      <feGaussianBlur stdDeviation="6"/>
    </filter>
  </defs>

  <rect width="1200" height="630" fill="url(#bg)"/>
  <rect width="1200" height="630" fill="url(#halo)"/>

  <!-- hairline grid texture -->
  <g stroke="#141b28" stroke-width="1">
    <path d="M0 90 H1200 M0 180 H1200 M0 270 H1200 M0 360 H1200 M0 450 H1200 M0 540 H1200"/>
    <path d="M90 0 V630 M300 0 V630 M510 0 V630 M720 0 V630 M930 0 V630 M1140 0 V630"/>
  </g>

  <!-- logo + wordmark -->
  <g transform="translate(80,74)">
    <rect x="0"  y="0"  width="26" height="26" rx="6" fill="url(#blue)"/>
    <rect x="34" y="0"  width="26" height="26" rx="6" fill="#4d7cfe" opacity="0.28"/>
    <rect x="0"  y="34" width="26" height="26" rx="6" fill="#4d7cfe" opacity="0.28"/>
    <rect x="34" y="34" width="26" height="26" rx="6" fill="#4d7cfe" opacity="0.55"/>
    <text x="82" y="42" font-family="'SF Pro Display','Helvetica Neue',Arial,sans-serif" font-size="34" font-weight="700" fill="#eef1f7">CurrentScope</text>
  </g>

  <!-- pitch -->
  <text x="80" y="260" font-family="'SF Pro Display','Helvetica Neue',Arial,sans-serif" font-size="66" font-weight="800" fill="#f3f5fa" letter-spacing="-1.5">Authorization as data</text>
  <text x="80" y="336" font-family="'SF Pro Display','Helvetica Neue',Arial,sans-serif" font-size="66" font-weight="800" fill="#f3f5fa" letter-spacing="-1.5">you <tspan fill="#6b93ff">edit in a UI</tspan> — not rules</text>
  <text x="80" y="412" font-family="'SF Pro Display','Helvetica Neue',Arial,sans-serif" font-size="66" font-weight="800" fill="#f3f5fa" letter-spacing="-1.5">you hardcode and redeploy.</text>

  <text x="82" y="478" font-family="'SF Mono','JetBrains Mono',monospace" font-size="26" fill="#9aa3b5">A mountable Rails engine · allowed_to? works everywhere</text>

  <!-- mini permission grid, glowing -->
  <g transform="translate(80,520)">
    <g font-family="'SF Mono',monospace" font-size="17">
      <!-- row of cells -->
      <g transform="translate(0,0)">
        <rect x="0"   y="0" width="34" height="34" rx="7" fill="#4d7cfe"/>
        <rect x="44"  y="0" width="34" height="34" rx="7" fill="#4d7cfe"/>
        <rect x="88"  y="0" width="34" height="34" rx="7" fill="#141b28" stroke="#2a3446"/>
        <rect x="132" y="0" width="34" height="34" rx="7" fill="#4d7cfe"/>
        <rect x="176" y="0" width="34" height="34" rx="7" fill="#141b28" stroke="#2a3446"/>
        <rect x="220" y="0" width="34" height="34" rx="7" fill="#141b28" stroke="#2a3446"/>
      </g>
    </g>
  </g>

  <!-- version pill -->
  <g transform="translate(1010,80)">
    <rect x="0" y="0" width="112" height="40" rx="20" fill="#101725" stroke="#2a3446"/>
    <circle cx="24" cy="20" r="5" fill="#34d399"/>
    <text x="40" y="26" font-family="'SF Mono',monospace" font-size="18" fill="#c7cddb">v0.2.0</text>
  </g>

  <!-- rubygems-ish tag -->
  <text x="1120" y="590" text-anchor="end" font-family="'SF Mono',monospace" font-size="20" fill="#6b7488">gem "current_scope"</text>
</svg>
